<?xml version="1.0" encoding="utf-8"?>
<!-- Generator: Adobe Illustrator 24.0.2, SVG Export Plug-In . SVG Version: 6.00 Build 0)  -->
<svg version="1.1" id="Layer_1" xmlns="http://www.w3.org/2000/svg" xmlns:xlink="http://www.w3.org/1999/xlink" x="0px" y="0px"
	 viewBox="0 0 112.2 26.2" style="enable-background:new 0 0 112.2 26.2;" xml:space="preserve">
<style type="text/css">
	.st0{fill:#FFFFFF;}
</style>
<g>
	<polygon class="st0" points="0,0 0,26.2 3.7,26.2 26.2,26.2 26.2,22.4 3.7,22.4 3.7,15 7.5,15 7.5,11.2 3.7,11.2 3.7,3.7 26.2,3.7 
		26.2,0 3.7,0 	"/>
	<polygon class="st0" points="11.2,7.5 11.2,18.7 15,18.7 18.7,18.7 18.7,15 15,15 15,7.5 	"/>
	<rect x="22.4" y="7.5" class="st0" width="3.7" height="11.2"/>
	<polygon class="st0" points="33.7,18.7 37.4,18.7 37.4,11.2 41.1,11.2 41.1,7.5 29.9,7.5 29.9,11.2 33.7,11.2 	"/>
	<rect x="44.9" y="7.5" class="st0" width="3.7" height="11.2"/>
	<polygon class="st0" points="29.9,3.7 52.3,3.7 52.3,22.4 29.9,22.4 29.9,26.2 56.1,26.2 56.1,22.4 56.1,3.7 56.1,0 29.9,0 	"/>
	<polygon class="st0" points="67.3,18.7 67.3,15 67.3,11.2 67.3,7.5 67.3,3.7 63.6,3.7 63.6,7.5 63.6,11.2 63.6,15 63.6,18.7 
		63.6,19.7 63.6,22.4 64.2,22.4 67.3,22.4 71,22.4 74.8,22.4 74.8,18.7 71,18.7 	"/>
	<polyline class="st0" points="112.2,7.5 112.2,3.7 108.4,3.7 104.7,3.7 102.8,3.7 101,3.7 101,5 101,7.5 101,11.2 101,15 102.5,15 
		104.7,15 108.4,15 108.4,18.7 104.7,18.7 101,18.7 101,22.4 104.7,22.4 108.4,22.4 110.4,22.4 112.2,22.4 112.2,18.7 112.2,15 
		112.2,13.2 112.2,11.2 108.4,11.2 104.7,11.2 104.7,7.5 	"/>
	<polyline class="st0" points="78.5,3.7 78.5,7.5 78.5,11.2 78.5,15 78.5,18.7 78.5,21 78.5,22.4 82.3,22.4 82.3,21 82.3,18.7 
		82.3,15 82.3,11.2 82.3,7.5 86,7.5 86,11.2 86,15 89.7,15 89.7,11.2 89.7,7.5 93.5,7.5 93.5,11.2 93.5,15 93.5,18.7 93.5,21.4 
		93.5,22.4 97.2,22.4 97.2,21.4 97.2,18.7 97.2,15 97.2,11.2 97.2,7.5 97.2,3.7 	"/>
</g>
</svg>
