<?xml version="1.0" encoding="utf-8"?>
<!-- Generator: Adobe Illustrator 24.0.2, SVG Export Plug-In . SVG Version: 6.00 Build 0)  -->
<svg version="1.1" id="Layer_1" xmlns="http://www.w3.org/2000/svg" xmlns:xlink="http://www.w3.org/1999/xlink" x="0px" y="0px" viewBox="0 0 269.1 267.5" style="enable-background:new 0 0 269.1 267.5;" xml:space="preserve">
<style>
	.st0{fill-rule:evenodd;clip-rule:evenodd;fill:#FFFFFF;filter:url(#Adobe_OpacityMaskFilter);}
	.st1{mask:url(#mask0_2_);}
	.st2{fill:#0065A9;}
	.st3{fill:#007ACC;}
	.st4{fill:#1F9CF0;}
	.st5{opacity:0.25;}
	.st6{fill-rule:evenodd;clip-rule:evenodd;fill:url(#SVGID_1_);}

</style>
<defs>
	<filter id="Adobe_OpacityMaskFilter" filterUnits="userSpaceOnUse" x="0" y="0" width="269.1" height="267.5">
		<feColorMatrix type="matrix" values="1 0 0 0 0  0 1 0 0 0  0 0 1 0 0  0 0 0 1 0"></feColorMatrix>
	</filter>
</defs>
<mask maskUnits="userSpaceOnUse" x="0" y="0" width="269.1" height="267.5" id="mask0_2_">
	<path class="st0" d="M190.8,266.4c4.2,1.6,9.1,1.5,13.3-0.5l55.4-26.6c5.8-2.8,9.5-8.7,9.5-15.1V43.4c0-6.5-3.7-12.3-9.5-15.1
		L204.2,1.7c-5.6-2.7-12.2-2-17.1,1.5c-0.7,0.5-1.4,1.1-2,1.7l-106,96.7l-46.2-35c-4.3-3.3-10.3-3-14.3,0.6L3.8,80.7
		c-4.9,4.4-4.9,12.1,0,16.6l40,36.5l-40,36.5c-4.9,4.4-4.9,12.1,0,16.6l14.8,13.5c4,3.6,10,3.9,14.3,0.6l46.2-35l106,96.7
		C186.8,264.3,188.7,265.5,190.8,266.4z M201.9,72.7l-80.4,61l80.4,61V72.7z"></path>
</mask>
<g class="st1">
	<path class="st2" d="M259.5,28.3L204.1,1.7c-6.4-3.1-14.1-1.8-19.1,3.2L3.7,170.3c-4.9,4.4-4.9,12.1,0,16.6l14.8,13.5
		c4,3.6,10,3.9,14.3,0.6L251.2,35.3c7.3-5.6,17.9-0.3,17.9,8.9v-0.6C269.1,37,265.4,31.1,259.5,28.3z"></path>
	<g>
		<path class="st3" d="M259.5,239.2l-55.4,26.7c-6.4,3.1-14.1,1.8-19.1-3.2L3.7,97.2c-4.9-4.4-4.9-12.1,0-16.6l14.8-13.5
			c4-3.6,10-3.9,14.3-0.6l218.4,165.7c7.3,5.6,17.9,0.3,17.9-8.9v0.6C269.1,230.5,265.4,236.4,259.5,239.2z"></path>
	</g>
	<g>
		<path class="st4" d="M204.1,265.8c-6.4,3.1-14.1,1.8-19.1-3.3c6.2,6.2,16.8,1.8,16.8-7V11.9c0-8.8-10.6-13.2-16.8-7
			c5-5,12.7-6.3,19.1-3.3l55.4,26.6c5.8,2.8,9.5,8.7,9.5,15.1v180.6c0,6.5-3.7,12.3-9.5,15.1L204.1,265.8z"></path>
	</g>
	<g class="st5">
		
			<linearGradient id="SVGID_1_" gradientUnits="userSpaceOnUse" x1="134.4457" y1="271.9998" x2="134.4457" y2="4.4947" gradientTransform="matrix(1 0 0 -1 0 272)">
			<stop offset="0" style="stop-color:#FFFFFF"></stop>
			<stop offset="1" style="stop-color:#FFFFFF;stop-opacity:0"></stop>
		</linearGradient>
		<path class="st6" d="M190.7,266.4c4.2,1.6,9.1,1.5,13.3-0.5l55.4-26.6c5.8-2.8,9.5-8.7,9.5-15.1V43.4c0-6.5-3.7-12.3-9.5-15.1
			L204,1.7c-5.6-2.7-12.2-2-17.1,1.5c-0.7,0.5-1.4,1.1-2,1.7l-106,96.7l-46.2-35c-4.3-3.3-10.3-3-14.3,0.6L3.7,80.7
			c-4.9,4.4-4.9,12.1,0,16.6l40,36.5l-40,36.5c-4.9,4.4-4.9,12.1,0,16.6l14.8,13.5c4,3.6,10,3.9,14.3,0.6l46.2-35l106,96.7
			C186.6,264.3,188.6,265.5,190.7,266.4z M201.7,72.7l-80.4,61l80.4,61V72.7z"></path>
	</g>
</g>
</svg>
